<svg width="40" height="40" viewBox="0 0 40 40" fill="none" xmlns="http://www.w3.org/2000/svg">
<path fill-rule="evenodd" clip-rule="evenodd" d="M22 5.10964C17.5235 5.10964 13.8673 8.47008 13.6366 12.6983C14.6421 12.6727 15.8213 12.6727 17.2353 12.6727H26.7648C31.024 12.6727 33.1536 12.6727 34.8198 13.3733C36.8072 14.2088 38.3944 15.7276 39.2678 17.629C40 19.2235 40 21.261 40 25.3364C40 29.4116 40 31.4492 39.2678 33.0436C38.3944 34.9452 36.8072 36.4638 34.8198 37.2994C33.1536 38 31.024 38 26.7648 38H17.2353C12.9761 38 10.8465 38 9.18012 37.2994C7.19278 36.4638 5.60552 34.9452 4.73224 33.0436C4 31.4492 4 29.4116 4 25.3364C4 21.261 4 19.2235 4.73224 17.629C5.60552 15.7276 7.19278 14.2088 9.18012 13.3733C9.54978 13.2179 9.94222 13.0969 10.3757 13.0028C10.443 6.91512 15.6216 2 22 2C24.4366 2 26.7026 2.71898 28.5726 3.94738C29.3126 4.4334 29.5006 5.40126 28.9926 6.1092C28.4846 6.81714 27.4732 6.99704 26.7332 6.51102C25.3872 5.6269 23.7592 5.10964 22 5.10964ZM20.9164 27.804C18.2012 27.804 16 25.6094 16 22.902C16 20.1948 18.2012 18 20.9164 18C23.6316 18 25.8328 20.1948 25.8328 22.902C25.8328 23.7584 25.6126 24.5636 25.2254 25.264C25.158 25.3864 25.1242 25.4474 25.1284 25.5068C25.1328 25.566 25.1726 25.6184 25.2524 25.7232L28.2064 29.6054C28.4504 29.926 28.5724 30.0864 28.6234 30.276C28.6744 30.4654 28.6494 30.6654 28.5992 31.0652L28.5544 31.4218C28.431 32.4074 28.3692 32.9002 28.0214 33.1548C27.6736 33.4096 27.185 33.3196 26.2082 33.14L25.311 32.9748C25.2004 32.9546 25.1452 32.9444 25.1046 32.9098C25.0638 32.8752 25.0448 32.8224 25.0068 32.7168L24.4628 31.2018C24.4302 31.1112 24.4138 31.0658 24.3806 31.0334C24.3472 31.0012 24.3014 30.9864 24.2098 30.9566L22.2902 30.3336C22.1724 30.2956 22.1136 30.2764 22.0766 30.2314C22.0394 30.1866 22.0318 30.1252 22.0166 30.0024L21.7872 28.1504C21.7636 27.9598 21.7516 27.8644 21.6894 27.8136C21.627 27.7628 21.5252 27.7712 21.3218 27.7876C21.188 27.7986 21.053 27.804 20.9164 27.804Z" fill="url(#paint0_linear_158_1169)"/>
<defs>
<linearGradient id="paint0_linear_158_1169" x1="22" y1="2" x2="22" y2="38" gradientUnits="userSpaceOnUse">
<stop stop-color="#728BAE"/>
<stop offset="1" stop-color="#354964"/>
</linearGradient>
</defs>
</svg>
