<svg width="40" height="40" viewBox="0 0 40 40" fill="none" xmlns="http://www.w3.org/2000/svg">
<path fill-rule="evenodd" clip-rule="evenodd" d="M11.9856 28.0144C10.9835 27.0122 9.35879 27.0122 8.35669 28.0144C7.87735 28.4936 7.43683 29.3714 7.11909 30.6124C6.90433 31.451 6.76551 32.3772 6.69259 33.3074C7.62277 33.2344 8.54885 33.0956 9.38759 32.8808C10.6285 32.5632 11.5062 32.1226 11.9856 31.6432C12.9877 30.6412 12.9877 29.0164 11.9856 28.0144ZM6.17935 25.837C8.38397 23.6324 11.9583 23.6324 14.1629 25.837C16.3675 28.0416 16.3675 31.616 14.1629 33.8206C13.1138 34.8698 11.6116 35.49 10.1514 35.8638C8.65711 36.2464 7.02239 36.4172 5.52937 36.4448C4.43017 36.4652 3.53481 35.5698 3.55515 34.4706C3.58277 32.9776 3.75349 31.3428 4.13611 29.8486C4.51001 28.3882 5.13023 26.8862 6.17935 25.837Z" fill="url(#paint0_linear_158_1139)"/>
<path fill-rule="evenodd" clip-rule="evenodd" d="M34.0208 3.17744C34.5912 3.37302 35.2284 3.59152 35.8184 4.18156C36.4084 4.7716 36.627 5.40878 36.8226 5.97914L36.8578 6.08174C37.305 7.3765 37.8864 9.41128 37.9854 11.5244C38.083 13.608 37.7216 16.0681 35.9364 17.8535L32.7648 21.025C31.3698 22.42 31.0276 22.8076 30.8598 23.2542C30.692 23.701 30.6942 24.218 30.8254 26.1864L30.9602 28.206C31.0258 29.1912 31.0814 30.0234 31.07 30.7164C31.058 31.4478 30.9726 32.1374 30.6936 32.8204C30.4296 33.4662 30.0484 34.0576 29.5688 34.5646C29.0618 35.1006 28.469 35.4628 27.8076 35.7756C27.1812 36.0718 26.4002 36.3646 25.4756 36.7114L25.3508 36.7582C24.2078 37.1868 23.2574 37.5432 22.5062 37.755C21.8004 37.9538 20.905 38.1434 20.059 37.8446C19.3623 37.5986 18.8794 37.2514 18.4245 36.669C18.1145 36.2722 17.9626 35.8242 17.8775 35.4368C17.7914 35.0444 17.7527 34.6132 17.7351 34.1706C17.7009 33.3082 17.741 32.165 17.7902 30.7606L17.7925 30.6932C17.8899 27.913 17.4162 25.4188 15.9988 24.0012C14.5813 22.5838 12.087 22.1102 9.30682 22.2074L9.23926 22.2098C7.8348 22.259 6.69172 22.299 5.8294 22.2648C5.38688 22.2474 4.95564 22.2086 4.56322 22.1224C4.17574 22.0374 3.7278 21.8856 3.331 21.5756C2.74866 21.1206 2.4014 20.6378 2.15532 19.9409C1.85661 19.095 2.04616 18.1995 2.24506 17.4937C2.45676 16.7426 2.81318 15.7922 3.24186 14.6491L3.28864 14.5243C3.63534 13.5997 3.92816 12.8189 4.22442 12.1923C4.53714 11.5311 4.8995 10.9381 5.43548 10.4311C5.94238 9.95168 6.53376 9.57034 7.17966 9.30646C7.86262 9.02742 8.55226 8.94202 9.28364 8.93002C9.97656 8.91868 10.8087 8.97416 11.794 9.03988L13.8111 9.17436L13.8136 9.17452C15.782 9.30574 16.299 9.308 16.7457 9.14016C17.1924 8.97234 17.58 8.63018 18.975 7.23522L22.1466 4.06366C23.9318 2.27832 26.392 1.91698 28.4756 2.01456C30.5888 2.11352 32.6236 2.69492 33.9182 3.14216L34.0208 3.17744ZM27.5898 12.4101C28.3916 13.2118 29.6912 13.2118 30.493 12.4101C31.2946 11.6084 31.2946 10.3087 30.493 9.507C29.6912 8.70534 28.3916 8.70534 27.5898 9.507C26.7882 10.3087 26.7882 11.6084 27.5898 12.4101Z" fill="url(#paint1_linear_158_1139)"/>
<defs>
<linearGradient id="paint0_linear_158_1139" x1="9.68559" y1="24.1836" x2="9.68559" y2="36.4452" gradientUnits="userSpaceOnUse">
<stop stop-color="#728BAE"/>
<stop offset="1" stop-color="#354964"/>
</linearGradient>
<linearGradient id="paint1_linear_158_1139" x1="20" y1="2" x2="20" y2="38" gradientUnits="userSpaceOnUse">
<stop stop-color="#728BAE"/>
<stop offset="1" stop-color="#354964"/>
</linearGradient>
</defs>
</svg>
