<svg width="40" height="40" viewBox="0 0 40 40" fill="none" xmlns="http://www.w3.org/2000/svg">
<path fill-rule="evenodd" clip-rule="evenodd" d="M19.9271 2H20.0728C23.0476 1.99999 25.3798 1.99998 27.2488 2.1652C29.1528 2.33354 30.7192 2.68224 32.1192 3.4663C33.9696 4.5026 35.4974 6.03042 36.5338 7.88086C37.3178 9.28088 37.6664 10.8472 37.8348 12.7512C38 14.6202 38 16.9523 38 19.927V20.073C38 23.0478 38 25.3798 37.8348 27.2488C37.6664 29.1528 37.3178 30.7192 36.5338 32.1192C35.4974 33.9696 33.9696 35.4974 32.1192 36.5338C30.7192 37.3178 29.1528 37.6664 27.2488 37.8348C25.3798 38 23.0478 38 20.073 38H19.0833C18.2549 38 17.5833 37.3284 17.5833 36.5C17.5833 35.6716 18.2549 35 19.0833 35H20C23.0634 35 25.2632 34.9986 26.9846 34.8464C28.6862 34.696 29.7766 34.4072 30.6532 33.9162C32.021 33.1502 33.1502 32.021 33.9162 30.6532C34.4072 29.7766 34.696 28.6862 34.8464 26.9846C34.9986 25.2632 35 23.0634 35 20C35 16.9366 34.9986 14.7369 34.8464 13.0154C34.696 11.3138 34.4072 10.2234 33.9162 9.34672C33.1502 7.979 32.021 6.84974 30.6532 6.08378C29.7766 5.5928 28.6862 5.30398 26.9846 5.15356C25.2632 5.00136 23.0634 5 20 5C16.9366 5 14.7369 5.00136 13.0154 5.15356C11.3138 5.30398 10.2234 5.5928 9.34672 6.08378C7.979 6.84974 6.84974 7.979 6.08378 9.34672C5.5928 10.2234 5.30398 11.3138 5.15356 13.0154C5.00136 14.7369 5 16.9366 5 20V20.9166C5 21.745 4.32842 22.4166 3.5 22.4166C2.67158 22.4166 2 21.745 2 20.9166V19.9271C1.99999 16.9523 1.99998 14.6202 2.1652 12.7512C2.33354 10.8472 2.68224 9.28088 3.4663 7.88086C4.5026 6.03042 6.03042 4.5026 7.88086 3.4663C9.28088 2.68224 10.8472 2.33354 12.7512 2.1652C14.6202 1.99998 16.9523 1.99999 19.9271 2Z" fill="url(#paint0_linear_158_1128)"/>
<path d="M27.6668 18.1666C27.6668 18.995 28.3384 19.6666 29.1668 19.6666C29.9952 19.6666 30.6668 18.995 30.6668 18.1666V10.8333C30.6668 10.5722 30.6 10.3267 30.4828 10.1129C30.4526 10.0577 30.4186 10.004 30.3808 9.95215C30.288 9.82447 30.1756 9.71199 30.0478 9.61917C29.9962 9.58157 29.9426 9.54767 29.8876 9.51749C29.6736 9.40005 29.428 9.33325 29.1668 9.33325H21.8334C21.005 9.33325 20.3334 10.0048 20.3334 10.8333C20.3334 11.6617 21.005 12.3333 21.8334 12.3333H25.5454L18.9393 18.9393C18.3536 19.5251 18.3536 20.475 18.9393 21.0608C19.5251 21.6464 20.4748 21.6464 21.0606 21.0608L27.6668 14.4546V18.1666Z" fill="url(#paint1_linear_158_1128)"/>
<path d="M9.06102 24H8.939C8.01062 24 7.22192 24 6.5754 24.0544C5.89646 24.1114 5.23936 24.2362 4.61516 24.5654C3.74078 25.0262 3.02622 25.7408 2.56532 26.6152C2.2363 27.2394 2.11138 27.8964 2.0543 28.5754C1.99996 29.222 1.99998 30.0106 2 30.939V31.061C1.99998 31.9894 1.99996 32.778 2.0543 33.4246C2.11138 34.1036 2.2363 34.7606 2.56532 35.3848C3.02622 36.2592 3.74078 36.9738 4.61516 37.4346C5.23936 37.7638 5.89646 37.8886 6.5754 37.9456C7.2219 38 8.01056 38 8.93892 38H9.06104C9.9894 38 10.7781 38 11.4246 37.9456C12.1036 37.8886 12.7606 37.7638 13.3849 37.4346C14.2592 36.9738 14.9738 36.2592 15.4347 35.3848C15.7637 34.7606 15.8886 34.1036 15.9457 33.4246C16.0001 32.778 16 31.9894 16 31.061V30.939C16 30.0106 16.0001 29.222 15.9457 28.5754C15.8886 27.8964 15.7637 27.2394 15.4347 26.6152C14.9738 25.7408 14.2592 25.0262 13.3849 24.5654C12.7606 24.2362 12.1036 24.1114 11.4246 24.0544C10.7781 24 9.9894 24 9.06102 24Z" fill="url(#paint2_linear_158_1128)"/>
<defs>
<linearGradient id="paint0_linear_158_1128" x1="20" y1="2" x2="20" y2="38" gradientUnits="userSpaceOnUse">
<stop stop-color="#728BAE"/>
<stop offset="1" stop-color="#354964"/>
</linearGradient>
<linearGradient id="paint1_linear_158_1128" x1="24.5834" y1="9.33325" x2="24.5834" y2="21.5" gradientUnits="userSpaceOnUse">
<stop stop-color="#728BAE"/>
<stop offset="1" stop-color="#354964"/>
</linearGradient>
<linearGradient id="paint2_linear_158_1128" x1="9" y1="24" x2="9" y2="38" gradientUnits="userSpaceOnUse">
<stop stop-color="#728BAE"/>
<stop offset="1" stop-color="#354964"/>
</linearGradient>
</defs>
</svg>
