<svg width="40" height="40" viewBox="0 0 40 40" fill="none" xmlns="http://www.w3.org/2000/svg">
<path d="M38 9.5C38 5.35786 34.6422 2 30.5 2C26.3578 2 23 5.35786 23 9.5C23 9.8106 23.0188 10.1168 23.0556 10.4175L15.2031 15.129C13.8275 13.5199 11.7829 12.5 9.5 12.5C5.35786 12.5 2 15.8579 2 20C2 24.1422 5.35786 27.5 9.5 27.5C11.7829 27.5 13.8275 26.48 15.2031 24.871L23.0556 29.5826C23.0188 29.8832 23 30.1894 23 30.5C23 34.6422 26.3578 38 30.5 38C34.6422 38 38 34.6422 38 30.5C38 26.3578 34.6422 23 30.5 23C27.7538 23 25.3524 24.476 24.0456 26.678L16.6581 22.2454C16.8802 21.5364 17 20.7822 17 20C17 19.2178 16.8802 18.4635 16.6581 17.7546L24.0456 13.3221C25.3524 15.524 27.7538 17 30.5 17C34.6422 17 38 13.6421 38 9.5Z" fill="url(#paint0_linear_158_1177)"/>
<defs>
<linearGradient id="paint0_linear_158_1177" x1="20" y1="2" x2="20" y2="38" gradientUnits="userSpaceOnUse">
<stop stop-color="#728BAE"/>
<stop offset="1" stop-color="#354964"/>
</linearGradient>
</defs>
</svg>
