<svg width="40" height="40" viewBox="0 0 40 40" fill="none" xmlns="http://www.w3.org/2000/svg">
<path fill-rule="evenodd" clip-rule="evenodd" d="M14.3602 2H25.6398C28.1646 1.99996 30.1996 1.99994 31.8002 2.21512C33.462 2.43854 34.861 2.9165 35.9722 4.02772C37.0836 5.13896 37.5614 6.53812 37.7848 8.19984C38 9.8004 38 11.8355 38 14.3602V25.6398C38 28.1646 38 30.1996 37.7848 31.8002C37.5614 33.462 37.0836 34.861 35.9722 35.9722C34.861 37.0836 33.462 37.5614 31.8002 37.7848C30.1996 38 28.1646 38 25.6398 38H14.3602C11.8355 38 9.8004 38 8.19984 37.7848C6.53812 37.5614 5.13896 37.0836 4.02772 35.9722C2.9165 34.861 2.43854 33.462 2.21512 31.8002C1.99994 30.1996 1.99996 28.1646 2 25.6398V14.3602C1.99996 11.8355 1.99994 9.8004 2.21512 8.19984C2.43854 6.53812 2.9165 5.13896 4.02772 4.02772C5.13896 2.9165 6.5381 2.43854 8.19984 2.21512C9.8004 1.99994 11.8355 1.99996 14.3602 2ZM28.1492 10.5241C28.1492 9.6821 28.8318 8.99952 29.6738 8.99952C30.5158 8.99952 31.1984 9.6821 31.1984 10.5241V30.8318C31.1984 31.6738 30.5158 32.3564 29.6738 32.3564C28.8318 32.3564 28.1492 31.6738 28.1492 30.8318V10.5241ZM15.2507 14.2165C15.2507 13.3745 15.9333 12.6919 16.7753 12.6919C17.6174 12.6919 18.3 13.3745 18.3 14.2165V30.8318C18.3 31.674 17.6174 32.3566 16.7753 32.3566C15.9333 32.3566 15.2507 31.674 15.2507 30.8318V14.2165ZM8.80152 23.4474C8.80152 22.6054 9.4841 21.9228 10.3261 21.9228C11.1682 21.9228 11.8507 22.6054 11.8507 23.4474V30.832C11.8507 31.6742 11.1682 32.3566 10.3261 32.3566C9.4841 32.3566 8.80152 31.6742 8.80152 30.832V23.4474ZM23.2246 16.3843C22.3826 16.3843 21.7 17.0669 21.7 17.9089V30.832C21.7 31.674 22.3826 32.3566 23.2246 32.3566C24.0666 32.3566 24.7492 31.674 24.7492 30.832V17.9089C24.7492 17.0669 24.0666 16.3843 23.2246 16.3843Z" fill="url(#paint0_linear_158_1111)"/>
<defs>
<linearGradient id="paint0_linear_158_1111" x1="20" y1="2" x2="20" y2="38" gradientUnits="userSpaceOnUse">
<stop stop-color="#728BAE"/>
<stop offset="1" stop-color="#354964"/>
</linearGradient>
</defs>
</svg>
