<svg width="40" height="40" viewBox="0 0 40 40" fill="none" xmlns="http://www.w3.org/2000/svg">
<path fill-rule="evenodd" clip-rule="evenodd" d="M30.6502 4.47484C29.944 4.15582 29.2236 4.044 28.4556 4.01126C27.7302 3.98034 26.8586 4.0182 25.8292 4.0629L25.7642 4.06572C21.2212 4.26286 15.0548 4.69536 9.9966 5.65446C7.48174 6.13132 5.13278 6.75744 3.37634 7.60414C1.73325 8.3962 0 9.68688 0 11.7282L2.7143e-05 22.7016C-8.1918e-06 25.4178 -3.68059e-05 27.6074 0.239068 29.3294C0.487318 31.1172 1.0184 32.6226 2.25308 33.8182C3.48776 35.0138 5.04238 35.5282 6.88874 35.7686C8.66714 36 10.9283 36 13.7336 36H26.8006C29.351 36 31.407 36 33.0366 35.806C34.7246 35.605 36.1628 35.1764 37.3558 34.1714C37.625 33.9448 37.8776 33.7002 38.1118 33.4394C39.0744 32.3676 39.525 31.0918 39.7508 29.6078H31.3066C27.6246 29.6078 24.6398 26.7174 24.6398 23.152C24.6398 19.5864 27.6246 16.696 31.3066 16.696H39.9398C39.53 13.5464 37.0734 11.014 33.901 10.3875C33.894 9.88656 33.8782 9.43598 33.8424 9.0339C33.7752 8.27832 33.6296 7.57154 33.2656 6.89664C32.7038 5.85494 31.75 4.97166 30.6502 4.47484ZM25.9018 7.0424C27.0138 6.99414 27.7478 6.96364 28.3202 6.98804C28.865 7.01126 29.1432 7.08198 29.3494 7.17512C29.8366 7.39528 30.2892 7.81434 30.5382 8.27594C30.6402 8.46522 30.7276 8.73682 30.7768 9.28984C30.801 9.56128 30.8142 9.87028 30.8212 10.2384H4.81714C6.1999 9.58526 8.20064 9.03124 10.5878 8.5786C15.4146 7.66338 21.3956 7.23794 25.9018 7.0424Z" fill="url(#paint0_linear_111_1884)"/>
<path fill-rule="evenodd" clip-rule="evenodd" d="M40 19.6758H31.3066C29.324 19.6758 27.7168 21.2321 27.7168 23.1521C27.7168 25.0719 29.324 26.6283 31.3066 26.6283H39.9736C40 25.6099 40 24.4761 40 23.2179V19.6758ZM32.3086 25.1385C33.4416 25.1385 34.36 24.2491 34.36 23.1521C34.36 22.0549 33.4416 21.1655 32.3086 21.1655C31.1758 21.1655 30.2574 22.0549 30.2574 23.1521C30.2574 24.2491 31.1758 25.1385 32.3086 25.1385Z" fill="url(#paint1_linear_111_1884)"/>
<defs>
<linearGradient id="paint0_linear_111_1884" x1="19.9699" y1="4" x2="19.9699" y2="36" gradientUnits="userSpaceOnUse">
<stop stop-color="#728BAE"/>
<stop offset="1" stop-color="#354964"/>
</linearGradient>
<linearGradient id="paint1_linear_111_1884" x1="33.8584" y1="19.6758" x2="33.8584" y2="26.6283" gradientUnits="userSpaceOnUse">
<stop stop-color="#728BAE"/>
<stop offset="1" stop-color="#354964"/>
</linearGradient>
</defs>
</svg>
