<svg width="36" height="36" viewBox="0 0 36 36" fill="none" xmlns="http://www.w3.org/2000/svg">
<path d="M19.2072 0.0178249C18.5186 -0.0672062 17.9127 0.162071 17.4163 0.490959C16.937 0.808481 16.4915 1.26214 16.0645 1.77128C15.2293 2.76719 14.2422 4.25266 13.0092 6.10978L6.05784 16.5803C5.20475 17.8652 4.48703 18.9461 4.06772 19.8391C3.63832 20.7535 3.34718 21.8308 3.91593 22.8861C4.48468 23.9413 5.54651 24.2939 6.54832 24.4417C7.5266 24.5858 8.82685 24.5858 10.3724 24.5857H11.4783C12.3201 24.5857 12.8429 24.5876 13.228 24.6328C13.5811 24.674 13.6594 24.7374 13.6773 24.7522C13.7176 24.7846 13.7548 24.8218 13.7875 24.862C13.8021 24.88 13.8652 24.9572 13.9066 25.3093C13.9518 25.6932 13.9538 26.2145 13.9538 27.0536V27.1417C13.9537 29.3861 13.9537 31.1805 14.0997 32.4778C14.1739 33.1373 14.2942 33.7606 14.518 34.2891C14.7499 34.8365 15.1283 35.3612 15.7495 35.6692C16.0771 35.8315 16.4298 35.9374 16.7928 35.9822C17.4813 36.0671 18.0873 35.838 18.5837 35.509C19.0629 35.1914 19.5084 34.7378 19.9355 34.2288C20.7752 33.2273 21.7688 31.7309 23.0112 29.8595L29.9421 19.4197C30.7953 18.1348 31.5129 17.0539 31.9322 16.161C32.3616 15.2466 32.6527 14.1692 32.0841 13.1139C31.5153 12.0587 30.4535 11.7061 29.4516 11.5584C28.4733 11.4141 27.1731 11.4142 25.6275 11.4143H24.5217C23.6799 11.4143 23.157 11.4123 22.772 11.3673C22.4188 11.326 22.3407 11.2625 22.3227 11.2479C22.2824 11.2154 22.2451 11.1781 22.2125 11.138C22.1979 11.1201 22.1348 11.0428 22.0934 10.6907C22.0482 10.3068 22.0462 9.78557 22.0462 8.94629V8.85823C22.0462 6.61396 22.0462 4.8195 21.9002 3.52229C21.8261 2.86279 21.7058 2.23934 21.4819 1.71086C21.2501 1.16345 20.8717 0.638813 20.2505 0.330856C19.9229 0.168498 19.5701 0.0626555 19.2072 0.0178249Z" fill="url(#paint0_linear_158_1133)"/>
<defs>
<linearGradient id="paint0_linear_158_1133" x1="18" y1="0" x2="18" y2="36" gradientUnits="userSpaceOnUse">
<stop stop-color="#728BAE"/>
<stop offset="1" stop-color="#354964"/>
</linearGradient>
</defs>
</svg>
