<svg width="40" height="40" viewBox="0 0 40 40" fill="none" xmlns="http://www.w3.org/2000/svg">
<path d="M20 36.6667C20.4067 36.6667 20.785 36.4783 21.5434 36.1L27.6267 33.0717C30.3217 31.7333 31.6667 31.0617 31.6667 30V16.6667M20 36.6667C19.5934 36.6667 19.215 36.4783 18.4567 36.1L12.3734 33.0717C9.67837 31.7333 8.33337 31.0617 8.33337 30V16.6667M20 36.6667V23.3333M31.6667 16.6667C31.6667 15.605 30.32 14.935 27.6284 13.595L21.5434 10.565C20.7834 10.1883 20.4067 10 20 10C19.5934 10 19.215 10.1883 18.4567 10.5667L12.3734 13.595C9.67837 14.9333 8.33337 15.605 8.33337 16.6667M31.6667 16.6667C31.6667 17.7283 30.32 18.3983 27.6284 19.7383L21.5434 22.7683C20.785 23.145 20.4067 23.3333 20 23.3333M8.33337 16.6667C8.33337 17.7283 9.68004 18.3983 12.3717 19.7383L18.4567 22.7683C19.215 23.145 19.5934 23.3333 20 23.3333" stroke="url(#paint0_linear_158_1172)" stroke-width="3.5" stroke-linejoin="round"/>
<path d="M36.6667 34.9999L31.6667 30.8333M20 3.33325V9.99992M3.33337 34.9999L8.33337 30.8333" stroke="url(#paint1_linear_158_1172)" stroke-width="3.5" stroke-linecap="round" stroke-linejoin="round"/>
<defs>
<linearGradient id="paint0_linear_158_1172" x1="20" y1="10" x2="20" y2="36.6667" gradientUnits="userSpaceOnUse">
<stop stop-color="#728BAE"/>
<stop offset="1" stop-color="#354964"/>
</linearGradient>
<linearGradient id="paint1_linear_158_1172" x1="20" y1="3.33325" x2="20" y2="34.9999" gradientUnits="userSpaceOnUse">
<stop stop-color="#728BAE"/>
<stop offset="1" stop-color="#354964"/>
</linearGradient>
</defs>
</svg>
