<svg width="40" height="40" viewBox="0 0 40 40" fill="none" xmlns="http://www.w3.org/2000/svg">
<path d="M11.1667 3.24928V6.31692C11.1667 7.1413 11.8383 7.8096 12.6667 7.8096C13.4952 7.8096 14.1667 7.1413 14.1667 6.31692V3.04248C15.5646 2.99998 17.164 3 19.0015 3H20.9984C22.836 3 24.4354 2.99998 25.8334 3.04248V6.31692C25.8334 7.1413 26.505 7.8096 27.3334 7.8096C28.1618 7.8096 28.8334 7.1413 28.8334 6.31692V3.2493C30.5204 3.46078 31.9436 3.86426 33.2058 4.67744C34.4498 5.47872 35.5092 6.53292 36.3144 7.77072C37.0988 8.97646 37.5038 10.3296 37.723 11.9209C36.7822 11.8455 35.5878 11.7571 34.1888 11.6687C30.557 11.4392 25.5398 11.2096 20 11.2096C14.4604 11.2096 9.42763 11.4392 5.78045 11.6687C4.39931 11.7556 3.21585 11.8425 2.27759 11.917C2.49691 10.3274 2.90193 8.97548 3.68565 7.77072C4.49085 6.53292 5.55023 5.47872 6.79409 4.67744C8.05649 3.86422 9.47961 3.46076 11.1667 3.24928Z" fill="url(#paint0_linear_158_1143)"/>
<path d="M2.04838 14.9308C1.99998 16.3634 1.99999 18.0123 2 19.9186V20.0815C1.99999 23.0783 1.99997 25.4387 2.18794 27.3229C2.38 29.2483 2.77992 30.8371 3.68566 32.2293C4.49086 33.4671 5.55024 34.5213 6.7941 35.3227C8.19326 36.2239 9.7899 36.6219 11.7246 36.8131C13.6181 37.0001 15.9901 37.0001 19.0015 37.0001H20.9986C22.2566 37.0001 23.403 37.0001 24.4494 36.9865C21.7004 35.2563 19.875 32.2043 19.875 28.7279C19.875 23.3351 24.2682 18.9634 29.6874 18.9634C33.1806 18.9634 36.2476 20.7797 37.9864 23.5153C38 22.4739 38 21.3331 38 20.0815V19.9188C38 18.0142 38 16.3667 37.9518 14.935C36.9694 14.8536 35.625 14.7509 33.9988 14.6482C30.4118 14.4215 25.4604 14.1951 20 14.1951C14.5398 14.1951 9.57254 14.4215 5.96974 14.6482C4.3646 14.7492 3.0317 14.8501 2.04838 14.9308Z" fill="url(#paint1_linear_158_1143)"/>
<path fill-rule="evenodd" clip-rule="evenodd" d="M29.6874 21.9485C25.925 21.9485 22.875 24.9837 22.875 28.7277C22.875 32.4719 25.925 35.5071 29.6874 35.5071C33.45 35.5071 36.5 32.4719 36.5 28.7277C36.5 24.9837 33.45 21.9485 29.6874 21.9485ZM30.0624 26.3333C30.0624 25.5089 29.391 24.8405 28.5624 24.8405C27.734 24.8405 27.0624 25.5089 27.0624 26.3333V29.3187C27.0624 30.1431 27.734 30.8113 28.5624 30.8113H31.5624C32.391 30.8113 33.0624 30.1431 33.0624 29.3187C33.0624 28.4943 32.391 27.8259 31.5624 27.8259H30.0624V26.3333Z" fill="url(#paint2_linear_158_1143)"/>
<defs>
<linearGradient id="paint0_linear_158_1143" x1="20.0003" y1="3" x2="20.0003" y2="11.9209" gradientUnits="userSpaceOnUse">
<stop stop-color="#728BAE"/>
<stop offset="1" stop-color="#354964"/>
</linearGradient>
<linearGradient id="paint1_linear_158_1143" x1="20" y1="14.1951" x2="20" y2="37.0001" gradientUnits="userSpaceOnUse">
<stop stop-color="#728BAE"/>
<stop offset="1" stop-color="#354964"/>
</linearGradient>
<linearGradient id="paint2_linear_158_1143" x1="29.6875" y1="21.9485" x2="29.6875" y2="35.5071" gradientUnits="userSpaceOnUse">
<stop stop-color="#728BAE"/>
<stop offset="1" stop-color="#354964"/>
</linearGradient>
</defs>
</svg>
