<svg width="40" height="40" viewBox="0 0 40 40" fill="none" xmlns="http://www.w3.org/2000/svg">
<path fill-rule="evenodd" clip-rule="evenodd" d="M2.00005 13.9534C1.99816 13.0418 2.17529 12.1305 2.63507 11.1293C3.21079 9.87578 4.05923 9.01582 5.17921 8.28018C6.22191 7.59532 7.56939 6.97696 9.18005 6.23782L10.0164 5.8539C11.8015 5.03432 13.3099 4.3418 15.0329 3.56828L15.278 3.45812C17.1885 2.59924 18.5214 2 20.0014 2C21.4814 2 22.8142 2.59924 24.7248 3.45812L24.97 3.56828C26.693 4.34182 28.2012 5.03434 29.9864 5.85396L31.0906 6.36052C34.1102 7.74352 36.266 8.7309 37.3668 11.1338C38.4662 13.5335 37.9454 15.4117 37.2248 18.0091L37.164 18.2289C34.615 27.4364 27.9748 33.3846 23.9888 36.2564L23.8518 36.3552C22.6366 37.2324 21.6338 37.9562 20.0004 37.9584V38.0002C18.3669 38.0024 17.3633 37.2822 16.147 36.4094L16.0102 36.3114C12.0168 33.451 5.37151 27.5166 2.83013 18.2697L2.76921 18.0484C2.34775 16.5178 1.99498 15.2367 2.00005 13.9534ZM22.2072 33.7038C22.0106 33.8454 21.8368 33.9698 21.6812 34.079V5.54482C22.1912 5.74664 22.8398 6.03308 23.725 6.4305C25.4354 7.19836 26.9316 7.8853 28.7176 8.7053L29.4638 9.04782C31.2412 9.86352 32.3794 10.4065 33.1514 10.9086C33.9086 11.4013 34.2946 11.843 34.5746 12.4543C34.8692 13.0971 34.9676 13.6094 34.9036 14.3065C34.8374 15.0257 34.599 15.9369 34.1992 17.3816C31.9284 25.5836 25.9536 31.0046 22.2072 33.7038Z" fill="url(#paint0_linear_158_1136)"/>
<defs>
<linearGradient id="paint0_linear_158_1136" x1="20" y1="2" x2="20" y2="38.0002" gradientUnits="userSpaceOnUse">
<stop stop-color="#728BAE"/>
<stop offset="1" stop-color="#354964"/>
</linearGradient>
</defs>
</svg>
