<svg width="24" height="24" viewBox="0 0 24 24" fill="none" xmlns="http://www.w3.org/2000/svg">
<path d="M11.9996 2.20023C14.6772 2.20023 17.1041 3.26797 18.8785 5.00003H18.4069C18.3912 4.99996 18.3757 4.99281 18.3639 4.97952L17.611 4.13187C17.3646 3.85354 17.0119 3.69732 16.6451 3.6973H16.608C16.2574 3.6973 15.92 3.8397 15.6764 4.09378L14.8063 5.00003H5.12073C6.89513 3.26788 9.32203 2.20029 11.9996 2.20023Z" fill="#F2F4F7" stroke="#F2F4F7" stroke-width="1.4"/>
<path d="M14.8174 8.65692V8.6579C15.0932 8.9677 15.4895 9.1461 15.9062 9.14618H17.0645V9.14716H21.4355C21.5505 9.53643 21.6428 9.93541 21.709 10.3434H14.665C14.6573 10.3434 14.6498 10.3417 14.6426 10.3386L14.6221 10.3239L13.8691 9.47528C13.6228 9.1971 13.27 9.04075 12.9033 9.04071H12.8662C12.8516 9.04071 12.8369 9.04217 12.8223 9.04266C13.1103 8.94127 13.3715 8.76935 13.5781 8.5368H13.5791L14.1445 7.89911L14.8174 8.65692ZM12.3721 9.13934C12.2089 9.20693 12.0594 9.3079 11.9346 9.43817L11.0645 10.3434H2.29102C2.35717 9.93541 2.44948 9.53643 2.56445 9.14716H12.2207C12.2715 9.14715 12.3219 9.14355 12.3721 9.13934Z" fill="#F2F4F7" stroke="#F2F4F7" stroke-width="1.4"/>
<path d="M7.30763 16.4095C7.47669 16.4095 7.63762 16.341 7.75424 16.2192L8.64838 15.2893C8.75958 15.1729 8.91418 15.1071 9.0751 15.1071H9.11217C9.28124 15.1071 9.44306 15.1792 9.55517 15.3064L10.3083 16.1552C10.452 16.3166 10.6572 16.4095 10.8742 16.4095H21.4918C21.8896 15.5896 22.1807 14.7093 22.3542 13.7884H12.1634C11.9474 13.7884 11.7412 13.6955 11.5975 13.534L10.8444 12.6853C10.7323 12.559 10.5705 12.486 10.4014 12.486C10.2323 12.486 10.0705 12.5581 9.95839 12.6853L9.31197 13.4141C9.10042 13.6522 8.79665 13.7893 8.47751 13.7893H1.64355C1.81714 14.7111 2.10826 15.5905 2.50605 16.4104H7.30763V16.4095Z" fill="#F2F4F7"/>
<path d="M10.7846 19.1553H8.02352C7.80745 19.1553 7.60132 19.0624 7.45757 18.901L6.70447 18.0522C6.59237 17.926 6.43053 17.8529 6.26147 17.8529C6.09241 17.8529 5.93058 17.9251 5.81847 18.0522L5.17205 18.781C4.9605 19.0191 4.65673 19.1562 4.33759 19.1562H4.29419C6.21807 21.2127 8.95654 22.4998 11.9988 22.4998C15.041 22.4998 17.7795 21.2127 19.7034 19.1562H10.7846V19.1553Z" fill="#F2F4F7"/>
</svg>
