<svg width="237" height="39" viewBox="0 0 237 39" fill="none" xmlns="http://www.w3.org/2000/svg">
<g clip-path="url(#clip0_772_22786)">
<path d="M97.6592 31.8649C96.6548 31.928 96.5296 32.004 96.3704 32.6066C96.3491 32.8543 96.4009 33.1028 96.5193 33.321C96.6377 33.5392 96.8174 33.7173 97.036 33.833C97.5838 33.874 98.1341 33.8696 98.6812 33.8201C100.338 33.719 106.051 33.719 107.959 33.8201C109.34 33.8961 109.353 33.8961 109.755 33.567L110.144 33.2258V31.5062C110.144 30.5458 110.207 28.9401 110.295 27.9158C110.446 26.1081 110.433 26.0321 110.182 25.703C110.099 25.5726 109.983 25.4673 109.846 25.3982C109.709 25.3292 109.556 25.2989 109.403 25.3108C108.888 25.2728 108.875 25.2858 108.624 25.842C108.399 26.3602 108.386 26.6003 108.448 28.1596C108.54 30.3974 108.373 31.0037 107.506 31.4849C106.967 31.788 106.816 31.801 104.694 31.839C102.246 31.89 101.982 31.839 101.656 31.2067C101.392 30.7006 101.392 24.127 101.656 23.9119C102.064 23.7752 102.498 23.7362 102.923 23.7979C103.966 23.8359 104.041 23.8609 104.28 24.19C104.556 24.5442 104.556 24.6322 104.493 26.516C104.455 27.5904 104.631 28.1086 105.07 28.2857C105.245 28.3287 105.427 28.3179 105.595 28.2547C105.763 28.1916 105.909 28.0789 106.012 27.9315C106.169 26.1833 106.219 24.427 106.163 22.6725C106.163 17.9187 106.163 17.6786 105.925 17.4635C105.498 17.0463 105.159 17.0213 104.807 17.3708C104.493 17.6869 104.48 17.7416 104.518 19.2415C104.543 20.5941 104.518 20.8471 104.304 21.1503C104.003 21.6055 103.652 21.7445 102.748 21.7445C101.518 21.7445 101.542 21.8205 101.542 18.6853C101.542 14.9939 101.505 15.0439 104.594 15.0439C106.226 15.0439 106.464 15.069 106.979 15.322C107.883 15.7772 107.992 16.1814 108.008 18.7103C108.008 20.9862 108.084 21.3144 108.686 21.6055C108.784 21.6637 108.894 21.6976 109.008 21.7042C109.121 21.7108 109.235 21.69 109.338 21.6435C109.942 21.3524 109.983 21.0743 109.916 17.2818C109.84 12.756 110.041 13.0972 107.379 13.0462C106.552 12.9575 105.716 13.0089 104.906 13.1982C102.936 13.4806 100.937 13.485 98.9666 13.2112C98.5709 13.0935 98.1611 13.0311 97.7486 13.0258C97.1962 13.0258 97.0203 13.0888 96.769 13.3289C96.5826 13.4929 96.4521 13.7116 96.3958 13.9543C96.3394 14.1969 96.3602 14.4513 96.455 14.6814C96.6686 15.1997 97.1207 15.3637 97.7982 15.1617C98.5016 14.9762 98.9159 15.2126 99.054 15.8949C99.1046 16.1601 99.1544 19.6874 99.1544 23.733C99.1507 32.4462 99.2759 31.7639 97.6592 31.8649Z" fill="white"/>
<path d="M127.84 24.8103C129.51 24.7853 129.71 24.8103 130.225 25.0634C131.192 25.5695 131.28 25.8476 131.367 28.8308C131.506 33.3316 131.882 33.8878 134.695 33.8878C135.837 33.8878 135.85 33.8878 136.189 33.4836C136.307 33.3812 136.394 33.2475 136.441 33.0978C136.487 32.9481 136.491 32.7882 136.452 32.6363C136.352 32.0291 136.084 31.865 135.184 31.865C133.879 31.865 133.677 31.4015 133.552 27.9205C133.577 26.8077 133.446 25.697 133.163 24.6212C132.916 24.2182 132.559 23.8961 132.133 23.6941C131.765 23.5421 131.732 23.4921 131.857 23.264C132.034 23.0284 132.256 22.8308 132.51 22.6827C133.209 22.2661 133.749 21.6248 134.042 20.8621C134.418 20.0657 134.431 19.9767 134.418 18.3971C134.516 17.5404 134.389 16.673 134.05 15.8811C133.247 13.9093 131.677 13.024 129.028 13.024C128.457 12.9773 127.881 13.0402 127.333 13.2094C125.947 13.4635 124.526 13.4635 123.14 13.2094C122.802 13.0683 122.439 13.0009 122.074 13.0118C121.709 13.0226 121.351 13.1115 121.022 13.2724C120.82 13.4281 120.68 13.6511 120.627 13.9015C120.574 14.1518 120.612 14.413 120.733 14.6379C120.917 14.9921 120.972 15.0171 121.876 15.0681C123.081 15.1191 123.194 15.2322 123.332 16.5217C123.47 17.8112 123.457 29.1006 123.332 30.391C123.207 31.6815 123.005 31.8576 121.889 31.8576C121.047 31.8576 120.922 31.9086 120.692 32.3211C120.577 32.5123 120.537 32.7395 120.578 32.9589C120.62 33.1783 120.741 33.3744 120.917 33.5096C121.256 33.8507 121.356 33.8804 122.206 33.8804C122.611 33.8903 123.015 33.8349 123.403 33.7163C123.852 33.5817 124.327 33.5642 124.784 33.6653C127.835 33.9434 127.797 33.9434 128.212 33.5263C128.398 33.375 128.522 33.1601 128.562 32.9224C128.601 32.6847 128.553 32.4407 128.425 32.2367C128.287 31.9457 128.174 31.9206 127.283 31.8576C125.788 31.7565 125.81 31.8196 125.739 28.3052C125.701 26.0803 125.726 25.4101 125.852 25.1533C126.019 24.8483 126.044 24.8483 127.84 24.8103ZM125.706 19.1081C125.675 18.1076 125.717 17.1063 125.831 16.1119C125.942 15.8732 126.106 15.6634 126.311 15.4989C126.516 15.3345 126.755 15.2197 127.011 15.1636C127.499 15.0968 127.991 15.063 128.484 15.0625C129.091 14.9959 129.704 15.1009 130.254 15.3657C131.598 15.9849 132.138 16.9203 132.15 18.6529C132.226 19.2737 132.132 19.9036 131.877 20.4742C131.623 21.0447 131.218 21.5342 130.706 21.8892C130.167 22.26 130.154 22.26 128.195 22.26C125.505 22.2563 125.706 22.5085 125.706 19.1081Z" fill="white"/>
<path d="M173.881 31.8687C172.99 31.8687 172.725 31.9948 172.549 32.5176C172.487 32.6516 172.466 32.8012 172.488 32.9474C172.511 33.0936 172.576 33.2299 172.675 33.339C172.989 33.8572 173.303 33.9462 174.394 33.8321C175.87 33.7238 177.351 33.7238 178.827 33.8321L179.906 33.9082L180.245 33.504C180.357 33.4079 180.442 33.2835 180.491 33.1435C180.539 33.0036 180.55 32.8531 180.521 32.7077C180.383 32.0374 180.132 31.8733 179.178 31.8733C178.374 31.8733 178.299 31.8483 177.91 31.4432C177.122 30.4904 176.416 29.4709 175.801 28.396C175.512 27.9028 175.157 27.3596 175.035 27.1696C174.935 27.0437 174.854 26.903 174.797 26.7524C174.62 26.4038 174.423 26.0661 174.207 25.741C172.449 22.9849 172.487 23.111 173.064 22.1756C173.29 21.8215 173.918 20.7971 174.458 19.8998C175.203 18.5536 176.033 17.2571 176.944 16.0183C177.118 15.6891 177.387 15.421 177.716 15.2494C178.045 15.0779 178.418 15.0111 178.785 15.0579C179.551 15.0579 179.576 15.0449 179.777 14.6277C179.881 14.4277 179.925 14.2013 179.902 13.9766C179.88 13.7518 179.793 13.5385 179.651 13.3632C179.4 13.0221 178.258 12.9461 177.48 13.2112C176.542 13.4621 175.557 13.4666 174.617 13.2242C173.626 12.921 173.073 12.9711 172.646 13.4012C171.918 14.1429 172.345 15.0579 173.425 15.0579C174.178 15.0579 174.467 15.2729 174.367 15.7661C173.544 17.4943 172.583 19.1518 171.492 20.722C171.24 20.773 171.065 20.507 169.659 18.004C168.077 15.1849 168.094 15.0579 169.734 15.0579C170.5 15.0579 170.776 14.7797 170.776 14.0381C170.776 13.1278 169.856 12.8116 168.467 13.2288C167.565 13.4699 166.618 13.4699 165.717 13.2288C165.049 13.0193 164.336 12.9975 163.657 13.1658C163.521 13.2455 163.403 13.3543 163.312 13.4846C163.222 13.6149 163.161 13.7635 163.133 13.92C163.106 14.0765 163.113 14.2372 163.153 14.3908C163.194 14.5444 163.267 14.6873 163.368 14.8094C163.552 14.9948 163.782 15.0625 164.31 15.0625C164.975 15.0625 165.038 15.0875 165.553 15.6317C166.331 16.428 166.971 17.4274 169.207 21.2959C169.457 21.7445 169.734 22.1779 170.035 22.5937C170.236 22.7077 170.161 23.251 169.884 23.6811C169.424 24.4144 168.595 25.7549 168.076 26.6272C167.197 28.1105 165.415 30.7739 164.938 31.3301C164.486 31.8613 164.461 31.8733 163.67 31.8733C162.703 31.8733 162.452 31.9874 162.251 32.4926C162.187 32.6099 162.156 32.7431 162.163 32.8772C162.169 33.0112 162.213 33.1407 162.289 33.2509C162.59 33.8321 162.879 33.9332 164.046 33.8321C165.585 33.7183 167.129 33.7183 168.667 33.8321C169.596 33.9248 169.647 33.9082 169.948 33.605C170.146 33.4142 170.264 33.1543 170.278 32.8785C170.292 32.6027 170.201 32.332 170.023 32.1218C169.823 31.9197 169.609 31.8687 168.968 31.8687C168.403 31.8687 168.102 31.8056 167.964 31.6666C167.886 31.6012 167.819 31.5247 167.763 31.4395C167.981 30.8961 168.227 30.3645 168.5 29.8468C168.575 29.7458 169.228 28.6713 169.973 27.4699C170.413 26.7184 170.895 25.9923 171.416 25.2951C171.541 25.2951 171.755 25.6362 173.2 28.0762C174.97 31.1104 175.095 31.3885 174.765 31.7176C174.487 31.8407 174.183 31.8926 173.881 31.8687Z" fill="white"/>
<path d="M152.034 15.0504C152.838 15.0504 152.976 14.9874 153.189 14.5869C153.303 14.3996 153.343 14.1764 153.301 13.9611C153.259 13.7459 153.139 13.5541 152.964 13.4235C152.637 13.0823 152.525 13.0313 151.909 13.0313C151.496 13.0367 151.086 13.0991 150.691 13.2167C149.768 13.4572 148.801 13.4572 147.878 13.2167C147.477 13.1058 147.064 13.0436 146.648 13.0313C146.465 13.0061 146.279 13.0267 146.106 13.0914C145.933 13.1561 145.779 13.2629 145.657 13.4022C145.467 13.5489 145.341 13.7651 145.309 14.0041C145.276 14.243 145.338 14.4854 145.481 14.6787C145.665 15.0328 145.719 15.0578 146.423 15.0578C147.352 15.0578 147.754 15.2349 147.93 15.7401C148.106 16.2454 148.244 26.5753 148.093 29.3314C147.955 31.7964 147.917 31.8724 146.62 31.8724C145.778 31.8724 145.653 31.9234 145.423 32.3359C145.307 32.5306 145.267 32.762 145.311 32.9849C145.355 33.2078 145.48 33.4061 145.661 33.541C146.038 33.9119 146.051 33.9118 147.067 33.8321C148.593 33.7243 150.124 33.7243 151.65 33.8321C152.571 33.9248 152.571 33.9248 152.939 33.516C153.378 33.0358 153.416 32.6687 153.064 32.2182C152.839 31.9271 152.696 31.8891 151.909 31.8473C151.093 31.8093 150.988 31.7713 150.753 31.4552C150.49 31.1011 150.49 31.0251 150.49 23.6171C150.502 14.6203 150.427 15.0504 152.034 15.0504Z" fill="white"/>
<path d="M26.4303 33.8247C27.885 33.7236 29.3449 33.7236 30.7996 33.8247C31.6908 33.9007 31.7792 33.8878 32.0296 33.6096C32.2143 33.4617 32.3354 33.2481 32.3682 33.0127C32.4009 32.7774 32.3426 32.5385 32.2054 32.3452C31.9799 31.953 31.9044 31.928 31.1927 31.865C30.2509 31.789 30.1257 31.6499 30.2132 30.7776C30.3908 29.333 30.767 27.9203 31.3308 26.58C31.5822 26.3148 31.6696 26.3018 33.7245 26.3018C34.4963 26.2731 35.2691 26.3113 36.0344 26.4159C36.5571 27.6335 36.8876 28.926 37.0139 30.2464C37.1272 31.5989 36.9762 31.839 35.9092 31.89C35.1809 31.928 35.1183 31.953 34.8965 32.3452C34.8016 32.4522 34.7419 32.5862 34.7254 32.7287C34.7089 32.8712 34.7365 33.0154 34.8044 33.1415C35.0806 33.7988 35.4194 33.9258 36.5242 33.8238C38.0036 33.71 39.4895 33.71 40.969 33.8238C41.9108 33.9165 41.9228 33.9165 42.187 33.5707C42.3578 33.3689 42.4537 33.1136 42.4582 32.8484C42.4628 32.5833 42.3757 32.3248 42.2119 32.1171C42.0112 31.915 41.7976 31.864 41.1568 31.864C40.2905 31.864 40.1018 31.763 39.7759 31.1308C39.6249 30.8397 38.533 26.693 38.0055 24.4051C37.8213 23.5708 37.5028 22.3193 37.2524 21.3709C37.002 20.4226 36.6871 19.1711 36.4993 18.3368C36.2857 17.4014 35.9966 16.263 35.5787 14.7334C35.4828 14.0925 35.2086 13.4921 34.7878 13.0017C34.4362 12.6225 34.2483 12.5215 33.9086 12.5382C33.6993 12.5132 33.4873 12.5459 33.295 12.6327C33.1027 12.7196 32.9374 12.8574 32.8167 13.0314C32.3836 13.8697 32.0788 14.7692 31.9127 15.6994C31.9082 15.867 31.8654 16.0313 31.7875 16.1796C31.7249 16.3056 31.4735 17.1659 31.2222 18.1013C30.343 21.4516 30.0254 22.602 29.5899 24.2197C29.3386 25.1171 28.9749 26.5206 28.7613 27.3169C28.4639 28.5849 28.0607 29.8253 27.5562 31.0251C27.2045 31.7204 26.9532 31.8724 26.0998 31.8724C25.2463 31.8724 25.1202 31.9234 24.8946 32.3359C24.7818 32.5346 24.7379 32.7654 24.7697 32.992C24.8016 33.2186 24.9074 33.428 25.0705 33.5874C25.3752 33.8878 25.4387 33.9007 26.4303 33.8247ZM32.733 20.3605C32.9466 19.6522 33.4234 17.6925 33.4234 17.4867C33.4487 17.3185 33.4906 17.1532 33.5487 16.9935C33.6868 16.6523 33.6868 16.6394 33.9381 16.8925C34.1739 17.2768 34.3238 17.7083 34.3772 18.1569C34.4776 18.7002 34.6405 19.4715 34.7538 19.8506C34.9545 20.6349 35.2436 21.9244 35.4571 23.0952C35.6707 24.2327 35.6201 24.2707 33.7494 24.2707C32.13 24.2707 31.9164 24.2077 31.9164 23.6765C32.1161 22.5543 32.3889 21.4466 32.733 20.3605Z" fill="white"/>
<path d="M84.7665 21.3848C84.8356 21.4925 84.9305 21.5811 85.0423 21.6424C85.1542 21.7038 85.2795 21.7359 85.4069 21.7359C85.5342 21.7359 85.6595 21.7038 85.7714 21.6424C85.8832 21.5811 85.978 21.4925 86.0472 21.3848L86.4154 21.014V13.5421L86.0886 13.289C85.7617 13.0239 85.6365 13.0239 79.8991 13.036C76.6852 13.036 73.973 13.074 73.8855 13.112C73.4583 13.289 73.3957 13.7822 73.4252 17.3346C73.45 20.4949 73.4758 20.875 73.6885 21.2282C73.7313 21.3351 73.797 21.4313 73.8808 21.5098C73.9646 21.5884 74.0646 21.6474 74.1736 21.6828C74.2826 21.7182 74.3979 21.729 74.5115 21.7145C74.6252 21.7 74.7342 21.6606 74.831 21.599C75.4211 21.3209 75.5086 20.8407 75.4211 18.3247L75.3456 16.0868L75.7728 15.6066C75.9065 15.4229 76.0862 15.2782 76.2935 15.1872C76.5008 15.0961 76.7284 15.0621 76.9531 15.0884C77.8571 15.0254 78.2088 15.2024 78.5605 15.8727C78.7989 16.3362 78.8118 16.6143 78.8615 21.6249C78.9122 27.5042 78.7861 30.8285 78.4933 31.4228C78.3175 31.7936 78.2797 31.8019 77.3508 31.8399C76.4845 31.8779 76.3593 31.903 76.1208 32.2107C75.7691 32.6659 75.8069 33.0321 76.246 33.5086L76.6226 33.9128L77.7145 33.8201C79.2318 33.7189 80.7542 33.7189 82.2716 33.8201C83.2005 33.8961 83.2134 33.8961 83.5771 33.5169C83.7767 33.3438 83.9015 33.099 83.9249 32.8347C83.9483 32.5704 83.8684 32.3073 83.7023 32.1013C83.5393 31.9243 83.288 31.8612 82.5349 31.8362C81.6143 31.7982 81.5811 31.7852 81.4053 31.419C81.2495 30.9071 81.1568 30.3778 81.1291 29.8431C81.0039 28.2671 81.0039 17.1882 81.1291 16.4011C81.1469 16.0689 81.2818 15.7539 81.5096 15.5129C81.7375 15.2719 82.0433 15.1208 82.372 15.0866C83.2512 14.9725 83.7409 15.1246 84.0917 15.6558C84.4056 16.1109 84.4056 16.1619 84.4056 18.5639V21.0168L84.7665 21.3848Z" fill="white"/>
<path d="M51.943 33.8877C52.1566 34.3512 52.2063 34.3939 52.6796 34.3939C53.1528 34.3939 53.2191 34.3429 53.4161 33.9387C53.5431 33.6426 53.6154 33.3256 53.6297 33.0033C53.6297 32.5862 53.6674 32.4972 53.8681 32.4972C53.9552 32.5096 54.0389 32.5395 54.1143 32.5851C54.1897 32.6306 54.2553 32.6909 54.3072 32.7623C54.7779 33.2972 55.3733 33.7056 56.0399 33.9508C56.2144 33.9797 56.3715 34.0745 56.479 34.2159C57.4506 34.4687 58.4701 34.4687 59.4416 34.2159C59.5784 34.0734 59.7606 33.9838 59.9563 33.9628C60.7944 33.5921 61.5439 33.0446 62.1538 32.3572C62.8248 31.4483 63.2857 30.4001 63.5029 29.2889C63.7202 28.1778 63.6883 27.0319 63.4096 25.9347C62.7817 23.6718 61.9154 22.9682 58.5882 21.9652C58.2494 21.8641 57.7596 21.738 57.5212 21.687C57.3253 21.6512 57.1352 21.5888 56.9559 21.5016C56.7559 21.3956 56.5455 21.3108 56.328 21.2486C55.7378 21.1378 55.1989 20.838 54.7917 20.3938C54.3844 19.9496 54.1305 19.3848 54.0679 18.7836C53.8165 16.5077 55.11 14.7046 57.0811 14.5739C57.6144 14.4972 58.1573 14.6139 58.6131 14.903C59.331 15.3215 59.9069 15.9485 60.2653 16.7019C60.6237 17.4552 60.748 18.3 60.6219 19.1257C60.5216 20.3308 60.714 20.9334 61.2369 21.1234C61.6889 21.3005 61.9734 21.1864 62.3168 20.7062C62.593 20.3141 62.6059 20.226 62.6059 17.1409C62.593 14.3978 62.5681 13.9296 62.3803 13.5755C62.3119 13.4112 62.1962 13.2712 62.0481 13.1737C61.9 13.0761 61.7263 13.0254 61.5493 13.0281C61.3724 13.0308 61.2003 13.0868 61.0552 13.1888C60.9101 13.2908 60.7986 13.4342 60.7351 13.6005C60.682 13.7662 60.5919 13.9175 60.4718 14.0427C60.2236 13.8943 59.9883 13.725 59.7685 13.5366C59.5282 13.321 59.2521 13.1496 58.9528 13.0304C58.7254 12.9831 58.5075 12.8976 58.3083 12.7773C57.3039 12.2341 55.2196 12.6383 54.0642 13.5987C53.3724 14.1338 52.8081 14.818 52.4128 15.601C52.0174 16.3841 51.8009 17.2463 51.7792 18.1245C51.636 19.196 51.8334 20.2856 52.3431 21.2372C52.8529 22.1888 53.6487 22.9534 54.6166 23.4215C55.3133 23.7933 56.0508 24.0818 56.8141 24.2809C57.7834 24.4774 58.7299 24.7741 59.6387 25.1662C60.3694 25.5345 60.9508 26.1465 61.2838 26.8979C62.1124 29.7801 60.4424 32.372 57.7431 32.372C56.9703 32.3628 56.2161 32.1319 55.5689 31.7065C54.9217 31.2811 54.4084 30.6788 54.089 29.9701C53.8041 29.2438 53.709 28.456 53.8129 27.6822C53.8129 25.5713 53.6877 25.2923 52.8084 25.2923C52.3481 25.2923 52.2183 25.3433 51.9799 25.6844C51.7285 26.0552 51.7166 26.1479 51.8169 27.4161C51.9337 28.7425 51.9293 30.0768 51.804 31.4024C51.7295 33.1795 51.7414 33.4326 51.943 33.8877Z" fill="white"/>
<path d="M186.134 6.14995L186.85 4.82244L189.335 6.36503L189.235 3.40686H190.867L190.767 6.36503L193.253 4.82244L193.968 6.14995L191.432 7.57851L193.968 8.98204L193.253 10.3346L190.767 8.792L190.867 11.7502H189.235L189.335 8.792L186.85 10.3346L186.134 8.98204L188.671 7.57851L186.134 6.14995Z" fill="white"/>
<path d="M195.539 6.14995L196.254 4.82244L198.74 6.36503L198.639 3.40686H200.272L200.171 6.36503L202.657 4.82244L203.372 6.14995L200.836 7.57851L203.372 8.98204L202.657 10.3346L200.171 8.792L200.272 11.7502H198.639L198.74 8.792L196.254 10.3346L195.539 8.98204L198.075 7.57851L195.539 6.14995Z" fill="#9B9B9B"/>
<path d="M204.93 6.14995L205.645 4.82244L208.131 6.36503L208.031 3.40686H209.663L209.563 6.36503L212.049 4.82244L212.764 6.14995L210.228 7.57851L212.764 8.98204L212.049 10.3346L209.563 8.792L209.663 11.7502H208.031L208.131 8.792L205.645 10.3346L204.93 8.98204L207.467 7.57851L204.93 6.14995Z" fill="#D3D3D3"/>
</g>
<defs>
<clipPath id="clip0_772_22786">
<rect width="188" height="31" fill="white" transform="translate(24.7648 3.40686)"/>
</clipPath>
</defs>
</svg>
