<svg width="28" height="28" viewBox="0 0 28 28" fill="none" xmlns="http://www.w3.org/2000/svg">
<path d="M6.31027 14L3.17029 17.1442L0 14L3.16913 10.8278L6.31027 14ZM13.9866 6.31633L19.3947 11.7297L22.565 8.55867L13.9866 0L5.40815 8.58667L8.57842 11.7577L13.9866 6.31633ZM24.804 10.8278L21.6629 14L24.832 17.1722L28 14L24.804 10.8278ZM13.9866 21.6837L8.57842 16.2423L5.40815 19.4145L13.9866 28L22.565 19.4133L19.3947 16.2423L13.9866 21.6837ZM13.9866 17.1453L17.1558 13.972L13.9866 10.829L10.8175 14L13.9866 17.1442V17.1453Z" fill="white"/>
</svg>
