<svg width="36" height="37" viewBox="0 0 36 37" fill="none" xmlns="http://www.w3.org/2000/svg">
<path d="M8.1132 18.39L4.07609 22.4325L0 18.39L4.0746 14.3115L8.1132 18.39ZM17.9828 8.51101L24.9361 15.471L29.0122 11.394L17.9828 0.390015L6.95334 11.43L11.0294 15.507L17.9828 8.51101ZM31.8909 14.3115L27.8523 18.39L31.9269 22.4685L36 18.39L31.8909 14.3115ZM17.9828 28.269L11.0294 21.273L6.95334 25.3515L17.9828 36.39L29.0122 25.35L24.9361 21.273L17.9828 28.269ZM17.9828 22.434L22.0574 18.354L17.9828 14.313L13.9082 18.39L17.9828 22.4325V22.434Z" fill="#F0B90B"/>
</svg>
