<svg width="64" height="76" viewBox="0 0 64 76" fill="none" xmlns="http://www.w3.org/2000/svg">
<g filter="url(#filter0_f_25_1164)">
<path d="M10.5958 35.6066L31.2744 9.06367C32.8916 6.98779 35.9229 8.27984 35.9229 11.045V31.5895C35.9229 33.246 37.1116 34.5888 38.5781 34.5888H48.6358C50.9206 34.5888 52.1385 37.6319 50.6291 39.5694L29.9505 66.1123C28.3333 68.1882 25.302 66.8961 25.302 64.1309V43.5864C25.302 41.93 24.1133 40.5872 22.6468 40.5872H12.5891C10.3043 40.5872 9.0864 37.5441 10.5958 35.6066Z" fill="#2172E6"/>
</g>
<path d="M13.078 35.8523L31.1923 12.6009C32.609 10.7824 35.2644 11.9143 35.2644 14.3366V32.3334C35.2644 33.7844 36.3057 34.9607 37.5903 34.9607H46.4008C48.4023 34.9607 49.4691 37.6265 48.1469 39.3237L30.0326 62.5751C28.616 64.3936 25.9606 63.2618 25.9606 60.8395V42.8426C25.9606 41.3916 24.9192 40.2153 23.6346 40.2153H14.8241C12.8227 40.2153 11.7558 37.5495 13.078 35.8523Z" fill="#2172E6" stroke="white" stroke-opacity="0.2" stroke-linecap="round" stroke-linejoin="round"/>
<defs>
<filter id="filter0_f_25_1164" x="1.92871" y="0.0397949" width="57.3675" height="75.0964" filterUnits="userSpaceOnUse" color-interpolation-filters="sRGB">
<feFlood flood-opacity="0" result="BackgroundImageFix"/>
<feBlend mode="normal" in="SourceGraphic" in2="BackgroundImageFix" result="shape"/>
<feGaussianBlur stdDeviation="4" result="effect1_foregroundBlur_25_1164"/>
</filter>
</defs>
</svg>
