<svg width="22" height="20" viewBox="0 0 22 20" fill="none" xmlns="http://www.w3.org/2000/svg">
<path d="M10.557 0.0591838C11.0287 -0.186812 11.6046 0.383859 11.3539 0.85518C11.2084 1.23938 10.6564 1.34154 10.3745 1.04869C10.0758 0.767626 10.1732 0.212106 10.557 0.0591838ZM5.48282 0.606154C5.7694 0.488188 6.13217 0.750743 6.10295 1.06308C6.13336 1.40215 5.71875 1.65172 5.42665 1.49057C5.03963 1.34068 5.0839 0.712431 5.48282 0.606154ZM15.8752 1.50009C15.4274 1.44598 15.3565 0.741868 15.7877 0.600093C16.1221 0.436998 16.4289 0.742842 16.4778 1.05983C16.4077 1.33051 16.1811 1.57834 15.8752 1.50009ZM6.63736 2.76579C7.11648 2.46276 7.80013 2.91406 7.72643 3.47055C7.70154 4.03245 6.95522 4.358 6.53412 3.97813C6.12697 3.67975 6.18866 2.99522 6.63736 2.76579ZM13.9513 3.08732C14.1651 2.53646 15.0312 2.51979 15.2745 3.05605C15.515 3.47336 15.2192 3.99014 14.7907 4.13202C14.2232 4.23797 13.6841 3.62445 13.9513 3.08732ZM9.94592 4.10075C9.94126 3.62726 10.3725 3.27445 10.8225 3.24219C11.121 3.30204 11.4463 3.42921 11.5744 3.7304C11.813 4.14587 11.6011 4.71795 11.1699 4.90865C10.9728 5.01914 10.7396 4.97769 10.5249 4.96482C10.1967 4.80367 9.92027 4.48765 9.94592 4.10075ZM2.39991 4.79068C2.83758 4.52163 3.42805 5.01265 3.26236 5.48808C3.17113 5.89934 2.61831 6.06666 2.3023 5.8041C1.96496 5.55811 2.01842 4.96665 2.39991 4.79068ZM18.6039 4.78981C18.9753 4.5015 19.588 4.83224 19.5438 5.30107C19.5686 5.72856 19.0389 6.05096 18.6703 5.83083C18.2643 5.64837 18.2229 5.0238 18.6039 4.78981ZM12.068 5.64101C12.6808 5.42088 13.4086 5.6843 13.7578 6.23062C14.2185 6.89847 13.9734 7.91558 13.2585 8.2988C12.5177 8.75205 11.436 8.36785 11.1624 7.54057C10.8518 6.79999 11.3042 5.87315 12.068 5.64101ZM8.47275 5.71384C9.15187 5.39328 10.0658 5.66222 10.3939 6.35692C10.7799 7.03311 10.4814 7.97467 9.79126 8.3238C9.10024 8.71622 8.12535 8.41871 7.79094 7.69274C7.41594 6.99068 7.74894 6.03711 8.47275 5.71384ZM4.87286 6.94458C4.92448 6.50702 5.33725 6.22228 5.7537 6.19285C6.20241 6.24696 6.56085 6.59544 6.60966 7.04956C6.58022 7.49912 6.23282 7.93852 5.75641 7.93581C5.23228 7.98094 4.77275 7.45951 4.87286 6.94458ZM15.5058 6.28798C16.0439 5.97477 16.791 6.43073 16.7671 7.04891C16.804 7.70389 15.9771 8.16547 15.4413 7.78127C14.8847 7.46135 14.9281 6.56038 15.5058 6.28798ZM7.00966 8.59642C7.63899 8.42326 8.35858 8.7199 8.66723 9.29837C9.00533 9.88062 8.86713 10.6895 8.34202 11.1166C7.66853 11.743 6.42643 11.4914 6.06799 10.6366C5.65609 9.85291 6.15641 8.8027 7.00966 8.59642ZM13.8288 8.59317C14.4406 8.41817 15.1593 8.654 15.4882 9.21136C15.9231 9.8488 15.7155 10.7996 15.0681 11.2105C14.39 11.6877 13.3395 11.4371 12.9664 10.691C12.514 9.91926 12.9692 8.82856 13.8288 8.59317ZM2.96193 9.32045C3.50554 9.11482 4.10814 9.71471 3.8879 10.2537C3.75338 10.7447 3.06139 10.9262 2.70392 10.5642C2.28563 10.2242 2.4405 9.46785 2.96193 9.32045ZM17.6968 10.1026C17.6811 9.65216 18.0106 9.25324 18.4725 9.22835C18.8448 9.28733 19.2069 9.58765 19.1774 9.99296C19.2115 10.5282 18.5665 10.8921 18.1104 10.6406C17.8967 10.5319 17.787 10.3127 17.6968 10.1026ZM0.288982 9.58484C0.616039 9.44209 1.02058 9.72553 0.945909 10.0887C0.928377 10.5 0.321233 10.6581 0.0981812 10.3145C-0.0988968 10.0759 0.0190686 9.70789 0.288982 9.58484ZM20.9105 9.57662C21.1408 9.41265 21.5103 9.53051 21.6015 9.79956C21.7563 10.0934 21.4725 10.496 21.1418 10.4463C20.6775 10.4886 20.5273 9.78105 20.9105 9.57662ZM8.78607 11.5508C9.64667 11.3269 10.5718 12.0446 10.5772 12.9307C10.6334 13.8262 9.72221 14.6202 8.84126 14.4134C8.16031 14.3038 7.626 13.6478 7.64808 12.9597C7.64624 12.3016 8.14288 11.6899 8.78607 11.5508ZM12.1943 11.5489C13.0678 11.3048 14.0205 12.0353 14.0066 12.9419C14.0527 13.8208 13.1701 14.5881 12.3075 14.4137C11.4958 14.3088 10.8969 13.417 11.1235 12.6293C11.2379 12.1044 11.6764 11.6776 12.1943 11.5489ZM5.62297 12.0944C6.22741 11.9912 6.79407 12.6656 6.54894 13.2395C6.37015 13.8511 5.48011 14.017 5.0866 13.5174C4.62502 13.0377 4.96961 12.1606 5.62297 12.0944ZM15.6181 12.1213C16.1571 11.8956 16.8186 12.3618 16.7772 12.9467C16.7988 13.5907 15.9821 14.0347 15.455 13.6589C14.858 13.3214 14.9667 12.3283 15.6181 12.1213ZM18.4118 14.9235C18.2008 14.5301 18.5841 14.0087 19.0209 14.0815C19.2383 14.0778 19.3904 14.2491 19.5296 14.3929C19.5582 14.626 19.6061 14.9041 19.4126 15.0838C19.1498 15.4163 18.5546 15.3214 18.4118 14.9235ZM2.39807 14.191C2.8063 13.9193 3.39375 14.3246 3.30197 14.8018C3.25316 15.2239 2.72145 15.4651 2.37123 15.2256C1.99537 15.0082 2.00922 14.3892 2.39807 14.191ZM10.463 15.0746C10.9974 14.8387 11.6783 15.304 11.6276 15.8926C11.6672 16.5431 10.8251 16.9935 10.3026 16.6029C9.72221 16.2675 9.81897 15.2808 10.463 15.0746ZM6.72762 15.946C7.18282 15.7065 7.79364 16.1201 7.75219 16.6295C7.76604 17.0478 7.35782 17.4043 6.94505 17.3425C6.60316 17.3352 6.38022 17.0287 6.27059 16.7372C6.27622 16.4196 6.40695 16.0658 6.72762 15.946ZM14.2941 15.9534C14.7622 15.6641 15.4274 16.0795 15.3831 16.6243C15.3952 17.1937 14.6433 17.5584 14.2075 17.1844C13.7855 16.8912 13.837 16.1865 14.2941 15.9534ZM15.6099 19.2063C15.4017 18.8912 15.6468 18.5117 15.9849 18.4398C16.2567 18.4951 16.5442 18.6996 16.487 19.0147C16.4474 19.4412 15.8236 19.5721 15.6099 19.2063ZM5.16496 18.9327C5.24786 18.683 5.44873 18.4348 5.74267 18.4998C6.17113 18.5302 6.29829 19.176 5.92329 19.375C5.58606 19.6024 5.19483 19.291 5.16496 18.9327ZM10.204 19.2192C10.2861 18.8498 10.7642 18.6701 11.0794 18.8663C11.2876 18.9557 11.3484 19.1887 11.4019 19.3868C11.3733 19.4899 11.3478 19.5932 11.3226 19.6963C11.1936 19.8492 11.0278 20.0022 10.8131 19.9966C10.4141 20.0434 10.0541 19.5923 10.204 19.2192Z" fill="white"/>
</svg>
