<svg width="23" height="20" viewBox="0 0 23 20" fill="none" xmlns="http://www.w3.org/2000/svg">
<path d="M22.5858 15.7686L18.838 19.7276C18.7566 19.8136 18.658 19.8822 18.5484 19.929C18.4389 19.9759 18.3207 20.0001 18.2013 20H0.435089C0.350316 20 0.267391 19.9756 0.196502 19.9298C0.125613 19.884 0.0698479 19.8188 0.0360582 19.7423C0.00226854 19.6657 -0.00807364 19.581 0.0063024 19.4988C0.0206784 19.4165 0.0591464 19.3401 0.11698 19.279L3.86757 15.32C3.94883 15.2342 4.04708 15.1658 4.15626 15.119C4.26546 15.0721 4.38324 15.0478 4.50235 15.0476H22.2676C22.3524 15.0476 22.4353 15.072 22.5062 15.1178C22.5771 15.1636 22.6328 15.2288 22.6667 15.3054C22.7005 15.382 22.7108 15.4666 22.6964 15.5489C22.682 15.6312 22.6436 15.7075 22.5858 15.7686ZM18.838 7.79618C18.7566 7.71018 18.658 7.64161 18.5484 7.59475C18.4389 7.54791 18.3207 7.52375 18.2013 7.52382H0.435089C0.350316 7.52382 0.267391 7.5482 0.196502 7.594C0.125613 7.6398 0.0698479 7.70498 0.0360582 7.78155C0.00226854 7.85814 -0.00807364 7.94277 0.0063024 8.02507C0.0206784 8.10734 0.0591464 8.18371 0.11698 8.24477L3.86757 12.2038C3.94883 12.2896 4.04708 12.358 4.15626 12.4049C4.26546 12.4517 4.38324 12.476 4.50235 12.4762H22.2676C22.3524 12.4762 22.4353 12.4518 22.5062 12.406C22.5771 12.3602 22.6328 12.295 22.6667 12.2185C22.7005 12.1419 22.7108 12.0572 22.6964 11.9749C22.682 11.8927 22.6436 11.8163 22.5858 11.7552L18.838 7.79618ZM0.435089 4.95239H18.2013C18.3207 4.95243 18.4389 4.9283 18.5484 4.88143C18.658 4.83457 18.7566 4.766 18.838 4.68L22.5858 0.720952C22.6436 0.659902 22.682 0.583541 22.6964 0.50125C22.7108 0.418959 22.7005 0.334325 22.6667 0.257745C22.6328 0.181166 22.5771 0.115976 22.5062 0.070187C22.4353 0.0243975 22.3524 2.81986e-06 22.2676 0H4.50235C4.38324 0.000199636 4.26546 0.024477 4.15626 0.0713291C4.04708 0.118181 3.94883 0.186611 3.86757 0.272382L0.117947 4.23143C0.0601691 4.29241 0.0217181 4.3687 0.00730948 4.45089C-0.00709918 4.53309 0.00316094 4.61766 0.0368314 4.6942C0.070502 4.77075 0.126119 4.83593 0.196863 4.8818C0.267606 4.92766 0.350399 4.95218 0.435089 4.95239Z" fill="white"/>
</svg>
