<svg width="33" height="12" viewBox="0 0 33 12" fill="none" xmlns="http://www.w3.org/2000/svg">
<path fill-rule="evenodd" clip-rule="evenodd" d="M8.71548 11.2399H5.91318L3.81181 2.98138C3.71207 2.60149 3.50029 2.26564 3.18877 2.10735C2.41134 1.70957 1.55467 1.393 0.620117 1.23333V0.91538H5.13439C5.75743 0.91538 6.2247 1.393 6.30258 1.94769L7.39289 7.90481L10.1938 0.91538H12.9182L8.71548 11.2399ZM14.4757 11.2399H11.8292L14.0084 0.91538H16.655L14.4757 11.2399ZM20.0789 3.77555C20.1568 3.21948 20.6241 2.90153 21.1692 2.90153C22.0259 2.8217 22.9591 2.98136 23.7379 3.37777L24.2052 1.15486C23.4264 0.83691 22.5697 0.677246 21.7923 0.677246C19.2236 0.677246 17.3545 2.10734 17.3545 4.09213C17.3545 5.60205 18.6785 6.39487 19.613 6.87248C20.6241 7.34872 21.0135 7.66667 20.9356 8.14291C20.9356 8.85727 20.1568 9.17522 19.3794 9.17522C18.4448 9.17522 17.5103 8.9371 16.655 8.53932L16.1877 10.7636C17.1223 11.16 18.1333 11.3197 19.0679 11.3197C21.948 11.3981 23.7379 9.96941 23.7379 7.82496C23.7379 5.12444 20.0789 4.96615 20.0789 3.77555ZM33.0003 11.2399L30.8989 0.91538H28.6418C28.1745 0.91538 27.7073 1.23333 27.5515 1.70957L23.6603 11.2399H26.3847L26.9285 9.73131H30.2759L30.5874 11.2399H33.0003ZM29.0312 3.69577L29.8086 7.58689H27.6294L29.0312 3.69577Z" fill="white"/>
</svg>
