<svg width="24" height="24" viewBox="0 0 24 24" fill="none" xmlns="http://www.w3.org/2000/svg">
<path d="M23.9432 10.9943H23.6971C20.8278 10.9943 17.9584 10.9921 15.0896 10.9975C14.7657 10.9979 14.5137 10.887 14.3062 10.6426C14.0645 10.3583 13.8148 10.0803 13.5651 9.80268C13.2134 9.4119 12.792 9.40606 12.4228 9.78786C12.1219 10.0991 11.8232 10.4127 11.5267 10.7289C11.3592 10.9076 11.1638 10.9966 10.9131 10.9966C7.35657 10.993 3.80001 10.9943 0.243003 10.9939C0.177424 10.9939 0.111844 10.9881 0 10.9831C0.0768088 10.4899 0.132956 10.0106 0.230426 9.53991C0.32116 9.10287 0.461751 8.67705 0.568205 8.24315C0.612224 8.06438 0.703856 8.01901 0.883076 8.01946C4.59685 8.0253 8.31017 8.02036 12.0239 8.02755C12.5544 8.02844 12.9811 7.86494 13.3126 7.44227C13.4963 7.2078 13.7021 6.98906 13.9073 6.7721C14.2258 6.43567 14.6521 6.446 14.9615 6.79187C15.2158 7.0753 15.4749 7.35513 15.7179 7.64844C15.947 7.92468 16.2349 8.02665 16.5853 8.0262C18.7445 8.02171 20.9041 8.02665 23.0633 8.01946C23.2609 8.01856 23.3413 8.07381 23.402 8.26651C23.6782 9.14464 23.8669 10.0372 23.9423 10.9948L23.9432 10.9943Z" fill="white"/>
<path d="M1.16918 17.2262C0.705185 16.2713 0.383127 15.2836 0.184143 14.2244C0.289699 14.2244 0.376839 14.2244 0.463979 14.2244C2.91512 14.2244 5.36626 14.2217 7.81741 14.2267C8.30521 14.2276 8.70183 14.0645 9.01356 13.6845C9.21254 13.4424 9.42276 13.2093 9.63611 12.9793C9.95009 12.6411 10.3844 12.642 10.6935 12.9806C10.9553 13.2672 11.2168 13.5551 11.4665 13.8525C11.6906 14.1202 11.9705 14.2262 12.3132 14.2258C16.0422 14.2226 19.7713 14.224 23.4999 14.224C23.5884 14.224 23.6768 14.224 23.7802 14.224C23.5942 15.2395 23.2793 16.1895 22.8584 17.1077C22.7933 17.2501 22.69 17.2267 22.5822 17.2267C20.4599 17.2267 18.3375 17.2267 16.2152 17.2267C14.4216 17.2267 12.6281 17.2222 10.835 17.2307C10.4702 17.2325 10.1873 17.1153 9.95592 16.8328C9.72415 16.5498 9.47531 16.2812 9.23051 16.009C8.91205 15.6546 8.48758 15.6398 8.15384 15.9766C7.82819 16.3054 7.5232 16.6567 7.18183 16.9684C7.04393 17.0946 6.83506 17.2128 6.65764 17.2146C4.83489 17.2325 3.01169 17.2253 1.16828 17.2253L1.16918 17.2262Z" fill="white"/>
<path d="M21.5437 4.80251C20.9561 4.80251 20.3682 4.80251 19.7807 4.80251C19.6239 4.80251 19.4667 4.80116 19.3099 4.80251C19.0323 4.80565 18.8015 4.70234 18.6168 4.49662C18.3429 4.19073 18.0742 3.88035 17.7976 3.57671C17.4768 3.22456 17.0492 3.21647 16.7191 3.55515C16.4222 3.85969 16.1266 4.16648 15.8396 4.48045C15.6352 4.70414 15.3972 4.8061 15.089 4.80565C10.9503 4.80026 6.81121 4.80206 2.67252 4.80206C2.59121 4.80206 2.50991 4.80206 2.35809 4.80206C4.41576 2.17125 7.02366 0.541193 10.2838 0.119868C14.8941 -0.475737 18.6402 1.1624 21.5688 4.71851C21.5603 4.74636 21.5518 4.77421 21.5432 4.80206L21.5437 4.80251Z" fill="white"/>
<path d="M3.23993 20.2083C3.73582 20.1656 4.08932 19.9181 4.37993 19.5484C4.54568 19.3378 4.73388 19.1442 4.91355 18.9438C5.22034 18.6016 5.65783 18.5908 5.96956 18.9263C6.22334 19.1999 6.47398 19.477 6.71025 19.7654C6.95145 20.0605 7.24791 20.1795 7.62836 20.1791C11.9009 20.1728 16.1734 20.175 20.4464 20.175C20.5345 20.175 20.623 20.175 20.711 20.175C18.67 22.3697 16.1699 23.6606 13.1995 23.9391C9.29435 24.3052 5.97854 23.0151 3.23993 20.2078V20.2083Z" fill="white"/>
</svg>
