<svg width="48" height="48" viewBox="0 0 48 48" fill="none" xmlns="http://www.w3.org/2000/svg">
<path d="M23.585 1.33093C36.3339 1.33119 46.6689 11.6668 46.6689 24.4159C46.6688 37.1649 36.3338 47.4996 23.585 47.4999C10.8359 47.4999 0.50019 37.165 0.5 24.4159C0.5 11.6666 10.8358 1.33093 23.585 1.33093Z" stroke="white" stroke-opacity="0.2"/>
<path d="M14.6807 3.19001C17.4853 2.033 20.4904 1.43974 23.5244 1.44412C26.5583 1.44849 29.5617 2.0504 32.363 3.21549" stroke="#CCCCCC"/>
<ellipse cx="23.3435" cy="24.4155" rx="19.2964" ry="19.2965" fill="white" fill-opacity="0.2"/>
<rect x="14.7671" y="15.8394" width="17.1523" height="17.1524" rx="4" fill="url(#paint0_radial_31_3103)"/>
<rect x="15.2671" y="16.3394" width="16.1523" height="16.1524" rx="3.5" stroke="url(#paint1_linear_31_3103)" stroke-opacity="0.4"/>
<path d="M23.3442 5.77588L25.8452 1.44401H20.8432L23.3442 5.77588Z" fill="#CCCCCC"/>
<defs>
<radialGradient id="paint0_radial_31_3103" cx="0" cy="0" r="1" gradientUnits="userSpaceOnUse" gradientTransform="translate(23.3433 24.4156) rotate(90) scale(8.57622 8.57617)">
<stop stop-color="#D1D1D1"/>
<stop offset="1" stop-color="#939393"/>
</radialGradient>
<linearGradient id="paint1_linear_31_3103" x1="23.3433" y1="15.8394" x2="23.3433" y2="32.9918" gradientUnits="userSpaceOnUse">
<stop stop-color="#EFEFEF"/>
<stop offset="1" stop-color="#EDEDED"/>
</linearGradient>
</defs>
</svg>
