<svg width="24" height="24" viewBox="0 0 24 24" fill="none" xmlns="http://www.w3.org/2000/svg">
<g clip-path="url(#clip0_32_2164)">
<path d="M16.9512 8.95206C16.8672 9.03606 16.7544 9.08406 16.6368 9.08406H5.48881C5.09521 9.08406 4.89601 8.60406 5.16961 8.31846L6.99841 6.42486C7.08241 6.33846 7.19761 6.28806 7.31761 6.28806H18.5064C18.9024 6.28806 19.1016 6.77286 18.8208 7.05846L16.9512 8.95206ZM16.9512 17.4145C16.8672 17.4961 16.7544 17.5441 16.6368 17.5441H5.48881C5.09521 17.5441 4.89601 17.0761 5.16961 16.7977L6.99841 14.9497C7.08241 14.8657 7.19761 14.8177 7.31761 14.8177H18.5064C18.9024 14.8177 19.1016 15.2905 18.8208 15.5689L16.9512 17.4145ZM16.6368 10.5529C16.7544 10.5529 16.8672 10.5985 16.9512 10.6825L18.8208 12.5305C19.1016 12.8065 18.9024 13.2817 18.5064 13.2817H7.31761C7.19761 13.2817 7.08241 13.2337 6.99841 13.1497L5.16961 11.3017C4.89361 11.0233 5.09281 10.5553 5.48881 10.5553L16.6368 10.5529Z" fill="#00FFAD"/>
<path d="M12 0C18.6264 0 24 5.3736 24 12C24 18.6264 18.6264 24 12 24C5.3736 24 0 18.6264 0 12C0 5.3736 5.3736 0 12 0Z" fill="black"/>
<path fill-rule="evenodd" clip-rule="evenodd" d="M5.54892 10.8551H16.6537C16.7929 10.8551 16.9249 10.9103 17.0209 11.0087L18.7777 12.7775C19.1017 13.1039 18.8713 13.6607 18.4105 13.6607H7.30572C7.16652 13.6607 7.03452 13.6055 6.93852 13.5071L5.18172 11.7383C4.85532 11.4119 5.08812 10.8551 5.54892 10.8551ZM5.18172 8.51032L6.93852 6.74152C7.03692 6.64312 7.16892 6.58792 7.30572 6.58792H18.4081C18.8689 6.58792 19.1017 7.14472 18.7753 7.47112L17.0209 9.23992C16.9225 9.33832 16.7905 9.39352 16.6537 9.39352H5.54892C5.08812 9.39352 4.85532 8.83672 5.18172 8.51032ZM18.7753 16.0055L17.0185 17.7743C16.9201 17.8727 16.7881 17.9279 16.6513 17.9279H5.54892C5.08812 17.9279 4.85532 17.3711 5.18172 17.0447L6.93852 15.2759C7.03692 15.1775 7.16892 15.1223 7.30572 15.1223H18.4081C18.8689 15.1223 19.1017 15.6791 18.7753 16.0055Z" fill="url(#paint0_linear_32_2164)"/>
</g>
<defs>
<linearGradient id="paint0_linear_32_2164" x1="5.82059" y1="18.4158" x2="18.1364" y2="6.09999" gradientUnits="userSpaceOnUse">
<stop stop-color="#CB4EE8"/>
<stop offset="1" stop-color="#10F4B1"/>
</linearGradient>
<clipPath id="clip0_32_2164">
<rect width="24" height="24" fill="white"/>
</clipPath>
</defs>
</svg>
