<svg width="41" height="41" viewBox="0 0 41 41" fill="none" xmlns="http://www.w3.org/2000/svg">
<path d="M34.5112 28.3426L29.6688 33.6204C29.5641 33.735 29.4372 33.8265 29.2962 33.8891C29.1551 33.9517 29.0029 33.9841 28.849 33.9843H5.89417C5.78469 33.9842 5.6776 33.9517 5.58602 33.8907C5.49444 33.8297 5.42234 33.7429 5.37854 33.6409C5.33475 33.5389 5.32116 33.4262 5.33945 33.3164C5.35775 33.2067 5.40713 33.1048 5.48153 33.0232L10.3184 27.7454C10.4231 27.6308 10.55 27.5393 10.691 27.4767C10.8321 27.4141 10.9843 27.3817 11.1382 27.3815H34.0931C34.2035 27.3792 34.3122 27.4101 34.4055 27.4705C34.4987 27.5308 34.5723 27.6178 34.617 27.7205C34.6617 27.8233 34.6755 27.9372 34.6566 28.0479C34.6378 28.1585 34.5872 28.2611 34.5112 28.3426ZM29.6688 17.7121C29.5636 17.598 29.4367 17.5069 29.2958 17.4443C29.1548 17.3817 29.0028 17.3491 28.849 17.3482H5.89417C5.78469 17.3483 5.6776 17.3808 5.58602 17.4418C5.49444 17.5028 5.42234 17.5896 5.37854 17.6916C5.33475 17.7936 5.32116 17.9063 5.33945 18.0161C5.35775 18.1258 5.40713 18.2277 5.48153 18.3093L10.3184 23.5899C10.4235 23.704 10.5505 23.7951 10.6914 23.8577C10.8324 23.9202 10.9844 23.9529 11.1382 23.9538H34.0931C34.2023 23.9532 34.309 23.9203 34.4002 23.8591C34.4914 23.7979 34.5631 23.711 34.6065 23.6091C34.65 23.5073 34.6633 23.3947 34.6449 23.2852C34.6265 23.1758 34.5772 23.0741 34.503 22.9926L29.6688 17.7121ZM5.89417 13.9205H28.849C29.0029 13.9203 29.1551 13.888 29.2962 13.8253C29.4372 13.7627 29.5641 13.6712 29.6688 13.5566L34.5112 8.27886C34.5679 8.21786 34.6107 8.14487 34.6365 8.06511C34.6623 7.98534 34.6704 7.90077 34.6603 7.81744C34.6502 7.73411 34.6221 7.65407 34.5781 7.58306C34.534 7.51204 34.475 7.4518 34.4054 7.40664C34.3122 7.34635 34.2035 7.31542 34.0931 7.31775H11.1382C10.9843 7.31792 10.8321 7.35031 10.691 7.41292C10.55 7.47553 10.4231 7.567 10.3184 7.68164L5.48153 12.9594C5.40713 13.041 5.35775 13.1429 5.33945 13.2526C5.32116 13.3624 5.33475 13.4751 5.37854 13.5771C5.42234 13.6791 5.49444 13.7659 5.58602 13.8269C5.6776 13.8879 5.78469 13.9204 5.89417 13.9205Z" fill="url(#paint0_linear_26_1001)"/>
<defs>
<linearGradient id="paint0_linear_26_1001" x1="7.80708" y1="34.6204" x2="32.3181" y2="7.43509" gradientUnits="userSpaceOnUse">
<stop offset="0.08" stop-color="#9945FF"/>
<stop offset="0.3" stop-color="#8752F3"/>
<stop offset="0.5" stop-color="#5497D5"/>
<stop offset="0.6" stop-color="#43B4CA"/>
<stop offset="0.72" stop-color="#28E0B9"/>
<stop offset="0.97" stop-color="#19FB9B"/>
</linearGradient>
</defs>
</svg>
