<svg width="64" height="63" viewBox="0 0 64 63" fill="none" xmlns="http://www.w3.org/2000/svg">
<circle cx="25" cy="24" r="6" fill="#D9D9D9"/>
<path d="M19 24L19 6C19 2.68629 21.6863 -1.17422e-07 25 -2.62268e-07C28.3137 -4.07115e-07 31 2.68629 31 6L31 24L19 24Z" fill="white" fill-opacity="0.2"/>
<circle cx="40" cy="39" r="6" fill="#D9D9D9"/>
<path d="M40 63C36.6863 63 34 60.3137 34 57L34 39L46 39L46 57C46 60.3137 43.3137 63 40 63Z" fill="white" fill-opacity="0.2"/>
<circle cx="25" cy="39" r="6" transform="rotate(-90 25 39)" fill="#D9D9D9"/>
<path d="M24 45L6 45C2.68629 45 1.67251e-06 42.3137 1.38281e-06 39C1.09312e-06 35.6863 2.68629 33 6 33L24 33L24 45Z" fill="white" fill-opacity="0.2"/>
<circle cx="40" cy="24" r="6" transform="rotate(90 40 24)" fill="#D9D9D9"/>
<path d="M40 18L58 18C61.3137 18 64 20.6863 64 24C64 27.3137 61.3137 30 58 30L40 30L40 18Z" fill="white" fill-opacity="0.2"/>
</svg>
